HIERARCHY
ROOT Hips
{
    OFFSET 0.000000 0.000000 0.000000
    CHANNELS 6 Xposition Yposition Zposition Zrotation Xrotation Yrotation
    JOINT Spine
    {
        OFFSET -0.000000 6.925600 0.000000
        CHANNELS 3 Zrotation Xrotation Yrotation
        JOINT Spine1
        {
            OFFSET -0.000000 16.343796 0.000000
            CHANNELS 3 Zrotation Xrotation Yrotation
            JOINT Neck
            {
                OFFSET -0.000000 18.032967 0.000000
                CHANNELS 3 Zrotation Xrotation Yrotation
                JOINT Head
                {
                    OFFSET -0.000000 13.091072 1.689171
                    CHANNELS 3 Zrotation Xrotation Yrotation
                    End Site
                    {
                        OFFSET -0.000000 16.891708 0.000000
                    }
                }
            }
            JOINT LeftShoulder
            {
                OFFSET 3.336773 14.146137 -0.012206
                CHANNELS 3 Zrotation Xrotation Yrotation
                JOINT LeftArm
                {
                    OFFSET 11.765518 0.000000 0.000000
                    CHANNELS 3 Zrotation Xrotation Yrotation
                    JOINT LeftForeArm
                    {
                        OFFSET 25.163450 0.000000 0.000000
                        CHANNELS 3 Zrotation Xrotation Yrotation
                        JOINT LeftHand
                        {
                            OFFSET 21.783554 0.000000 0.000000
                            CHANNELS 3 Zrotation Xrotation Yrotation
                            End Site
                            {
                                OFFSET 12.668781 0.000000 0.000000
                            }
                        }
                    }
                }
            }
            JOINT RightShoulder
            {
                OFFSET -3.409204 14.146137 -0.012206
                CHANNELS 3 Zrotation Xrotation Yrotation
                JOINT RightArm
                {
                    OFFSET -11.765518 0.000000 0.000000
                    CHANNELS 3 Zrotation Xrotation Yrotation
                    JOINT RightForeArm
                    {
                        OFFSET -25.163450 0.000000 0.000000
                        CHANNELS 3 Zrotation Xrotation Yrotation
                        JOINT RightHand
                        {
                            OFFSET -21.783554 0.000000 0.000000
                            CHANNELS 3 Zrotation Xrotation Yrotation
                            End Site
                            {
                                OFFSET -12.668781 0.000000 0.000000
                            }
                        }
                    }
                }
            }
        }
    }
    JOINT LeftUpLeg
    {
        OFFSET 8.445854 0.000000 0.000000
        CHANNELS 3 Zrotation Xrotation Yrotation
        JOINT LeftLeg
        {
            OFFSET -0.000000 -40.674755 0.000000
            CHANNELS 3 Zrotation Xrotation Yrotation
            JOINT LeftFoot
            {
                OFFSET -0.000000 -37.111794 0.000000
                CHANNELS 3 Zrotation Xrotation Yrotation
                JOINT LeftToeBase
                {
                    OFFSET -0.000000 -5.489805 12.668781
                    CHANNELS 3 Zrotation Xrotation Yrotation
                    End Site
                    {
                        OFFSET -0.000000 0.000000 3.378341
                    }
                }
            }
        }
    }
    JOINT RightUpLeg
    {
        OFFSET -8.445854 0.000000 0.000000
        CHANNELS 3 Zrotation Xrotation Yrotation
        JOINT RightLeg
        {
            OFFSET -0.000000 -40.674755 0.000000
            CHANNELS 3 Zrotation Xrotation Yrotation
            JOINT RightFoot
            {
                OFFSET -0.000000 -37.111794 0.000000
                CHANNELS 3 Zrotation Xrotation Yrotation
                JOINT RightToeBase
                {
                    OFFSET -0.000000 -5.489805 12.668781
                    CHANNELS 3 Zrotation Xrotation Yrotation
                    End Site
                    {
                        OFFSET -0.000000 0.000000 3.378341
                    }
                }
            }
        }
    }
}
MOTION
Frames:    4
Frame Time:    0.008333
-25.432718    84.668991    77.329102    -2.384948    1.679670    -168.839966    2.441721    -1.582878    3.268201    -2.298113    -0.603307    1.066831    -3.870011    5.065795    -3.419205    -14.969583    2.877008    -1.913856    7.137596    -2.060957    -1.054023    -37.892845    2.554844    -56.812813    -2.170431    -19.294205    -90.436516    20.005836    -21.088140    1.578672    -7.500535    -1.036769    7.113266    39.061417    -3.166993    62.934273    -16.660639    -15.690239    73.785599    -35.348961    -5.240820    6.280923    -0.316594    -8.985234    -7.751868    -1.892965    13.970125    -0.201001    0.199141    -4.741518    16.647770    -0.826004    -1.131282    -0.125445    -2.086438    5.126546    7.609092    -6.209153    10.332469    9.381747    7.840798    -10.944417    4.783944    -0.831180    -1.266446    5.104161    
-25.654280    84.681480    77.150322    -2.371023    1.627691    -168.948074    2.557661    -1.655093    3.124223    -2.326128    -0.625079    1.017131    -4.132437    4.944064    -3.225029    -14.941158    3.099128    -1.731175    7.368358    -2.589209    -1.056672    -37.395615    1.658802    -57.275059    -0.896283    -19.037386    -89.633476    20.957048    -19.810265    0.397725    -7.851813    -2.171522    8.234649    37.735737    -3.819030    62.368675    -17.953274    -15.434995    73.489204    -35.236168    -4.145804    6.610431    -0.457929    -8.920204    -7.864950    -1.921896    14.020947    -0.065203    0.404384    -4.615369    16.739498    -0.869895    -1.273722    -0.316285    -2.345556    5.249144    9.121971    -5.715711    10.346306    7.733713    7.901728    -10.741726    4.970233    -0.690573    -1.489062    5.115484    
-25.872192    84.698692    76.976135    -2.338825    1.575901    -169.043747    2.968107    -2.898525    3.070515    -2.799428    1.505977    1.036120    -3.946027    3.827278    -3.211931    -15.165731    3.265688    -1.588506    8.047446    -3.862072    -1.130756    -36.639790    0.722845    -57.776001    -0.067360    -19.315233    -88.793213    20.695246    -19.317896    0.359262    -8.716665    -2.996667    8.202803    35.738945    -4.424728    63.564812    -23.149183    -13.663136    70.537979    -44.442394    1.960921    2.348734    -0.588732    -8.851690    -7.996677    -1.932610    14.054482    0.071226    0.561959    -4.549179    16.838694    -0.942305    -1.399424    -0.389089    -2.475902    5.300221    9.047341    -5.725225    10.418224    7.893119    6.214573    -10.149778    5.118799    0.979382    -3.674001    4.267189    
-26.089626    84.716583    76.800339    -2.303628    1.528572    -169.153427    2.738976    -2.724854    2.918004    -2.266653    0.951657    0.970681    -4.326125    4.034103    -2.980662    -15.181335    3.492368    -1.388669    8.788930    -3.859734    -1.526592    -36.816929    0.224340    -57.722458    1.042812    -19.931952    -88.508202    19.260540    -18.933620    0.264440    -9.468696    -3.105625    8.281954    34.509609    -4.965997    64.202324    -24.187635    -13.226308    69.700928    -44.213440    2.594026    3.163513    -0.722062    -8.769036    -8.149365    -1.933807    14.087261    0.285394    0.719362    -4.532535    16.891798    -0.992258    -1.480570    -0.427257    -2.510834    5.257651    7.568525    -6.150617    10.506882    9.493644    6.458157    -10.189530    5.136751    1.060841    -3.832541    4.341422    
